<svg xmlns="http://www.w3.org/2000/svg" x="0px" y="0px"
width="24" height="24"
viewBox="0 0 172 172"
style=" fill:#000000;"><g fill="none" fill-rule="nonzero" stroke="none" stroke-width="1" stroke-linecap="butt" stroke-linejoin="miter" stroke-miterlimit="10" stroke-dasharray="" stroke-dashoffset="0" font-family="none" font-weight="none" font-size="none" text-anchor="none" style="mix-blend-mode: normal"><path d="M0,172v-172h172v172z" fill="none"></path><g fill="#fffafa"><path d="M20.60641,17.16641c-0.14838,0.00162 -0.2965,0.01284 -0.44344,0.03359h-2.96297v2.96969c-0.04063,0.30323 -0.04063,0.61052 0,0.91375v37.39656c-0.01754,1.24059 0.63425,2.39452 1.7058,3.01993c1.07155,0.62541 2.39684,0.62541 3.46839,0c1.07155,-0.62541 1.72335,-1.77935 1.7058,-3.01993v-29.53562l45.72781,45.72781c0.72797,0.75783 1.76237,1.1414 2.80844,1.04141c0.11268,-0.01014 0.2248,-0.02584 0.33594,-0.04703c1.26001,-0.24695 2.27765,-1.17501 2.63933,-2.407c0.36168,-1.23199 0.00722,-2.56287 -0.91933,-3.45175l-45.72781,-45.72781h29.53562c1.24059,0.01754 2.39452,-0.63425 3.01993,-1.7058c0.62541,-1.07155 0.62541,-2.39684 0,-3.46839c-0.62541,-1.07155 -1.77935,-1.72335 -3.01993,-1.7058h-37.43687c-0.14471,-0.02046 -0.29058,-0.03168 -0.43672,-0.03359zM151.29281,17.16641c-0.12818,0.00405 -0.25604,0.01527 -0.38297,0.03359h-37.38985c-1.24059,-0.01754 -2.39452,0.63425 -3.01993,1.7058c-0.62541,1.07155 -0.62541,2.39684 0,3.46839c0.62541,1.07155 1.77935,1.72335 3.01993,1.7058h29.53563l-45.72781,45.72781c-0.89867,0.86281 -1.26068,2.14404 -0.94641,3.34956c0.31427,1.20552 1.2557,2.14696 2.46122,2.46122c1.20552,0.31427 2.48675,-0.04774 3.34956,-0.94641l45.72781,-45.72781v29.53562c-0.01754,1.24059 0.63425,2.39452 1.7058,3.01993c1.07155,0.62541 2.39684,0.62541 3.46839,0c1.07155,-0.62541 1.72335,-1.77935 1.7058,-3.01993v-37.40328c0.04369,-0.31427 0.04369,-0.63307 0,-0.94734v-2.92937h-2.9361c-0.1891,-0.02703 -0.38013,-0.03827 -0.57109,-0.03359zM72.17281,96.2864c-0.89371,0.02663 -1.74194,0.40014 -2.365,1.04141l-45.72781,45.72781v-29.53563c0.01273,-0.92983 -0.35149,-1.82522 -1.00967,-2.48214c-0.65819,-0.65692 -1.55427,-1.01942 -2.48408,-1.00489c-1.89722,0.02966 -3.41223,1.58976 -3.38625,3.48703v37.31594c-0.06364,0.37807 -0.06364,0.76412 0,1.14219v2.82187h2.83531c0.37368,0.06214 0.75507,0.06214 1.12875,0h37.31594c1.24059,0.01754 2.39452,-0.63425 3.01993,-1.7058c0.62541,-1.07155 0.62541,-2.39684 0,-3.46839c-0.62541,-1.07155 -1.77935,-1.72335 -3.01993,-1.7058h-29.53562l45.72781,-45.72781c1.01742,-0.98897 1.32333,-2.50111 0.77034,-3.80778c-0.55299,-1.30667 -1.85145,-2.13983 -3.26971,-2.098zM99.7264,96.2864c-1.35598,0.00009 -2.58542,0.79667 -3.13963,2.03422c-0.55421,1.23755 -0.3298,2.6852 0.57307,3.69688c0.05392,0.06018 0.10994,0.11845 0.16797,0.17469l45.72781,45.72781h-29.53563c-1.24059,-0.01754 -2.39452,0.63425 -3.01993,1.7058c-0.62541,1.07155 -0.62541,2.39684 0,3.46839c0.62541,1.07155 1.77935,1.72335 3.01993,1.7058h37.31594c0.37807,0.06364 0.76412,0.06364 1.14219,0h2.82187v-2.83531c0.06214,-0.37368 0.06214,-0.75507 0,-1.12875v-37.31594c0.01273,-0.92983 -0.35149,-1.82522 -1.00967,-2.48214c-0.65819,-0.65692 -1.55427,-1.01942 -2.48408,-1.00489c-1.89722,0.02966 -3.41223,1.58976 -3.38625,3.48703v29.53563l-45.72781,-45.72781c-0.64765,-0.66575 -1.53698,-1.04135 -2.46578,-1.04141z"></path></g></g></svg>