<svg width="228" height="228" viewBox="0 0 228 228" fill="none" xmlns="http://www.w3.org/2000/svg">
<g clip-path="url(#clip0)">
<path d="M156.75 0H71.25C52.3533 0 34.2306 7.50667 20.8686 20.8686C7.50667 34.2306 0 52.3533 0 71.25L0 156.75C0 175.647 7.50667 193.769 20.8686 207.131C34.2306 220.493 52.3533 228 71.25 228H156.75C175.647 228 193.769 220.493 207.131 207.131C220.493 193.769 228 175.647 228 156.75V71.25C228 52.3533 220.493 34.2306 207.131 20.8686C193.769 7.50667 175.647 0 156.75 0V0ZM206.625 156.75C206.625 184.252 184.252 206.625 156.75 206.625H71.25C43.7475 206.625 21.375 184.252 21.375 156.75V71.25C21.375 43.7475 43.7475 21.375 71.25 21.375H156.75C184.252 21.375 206.625 43.7475 206.625 71.25V156.75Z" fill="#1B1818"/>
<path d="M114 57C98.8827 57 84.3845 63.0053 73.6949 73.6949C63.0053 84.3845 57 98.8827 57 114C57 129.117 63.0053 143.616 73.6949 154.305C84.3845 164.995 98.8827 171 114 171C129.117 171 143.616 164.995 154.305 154.305C164.995 143.616 171 129.117 171 114C171 98.8827 164.995 84.3845 154.305 73.6949C143.616 63.0053 129.117 57 114 57ZM114 149.625C104.555 149.614 95.5003 145.857 88.8218 139.178C82.1433 132.5 78.3863 123.445 78.375 114C78.375 94.3493 94.3635 78.375 114 78.375C133.637 78.375 149.625 94.3493 149.625 114C149.625 133.637 133.637 149.625 114 149.625Z" fill="#1B1818"/>
<path d="M175.276 60.3201C179.471 60.3201 182.872 56.9196 182.872 52.7249C182.872 48.5301 179.471 45.1296 175.276 45.1296C171.082 45.1296 167.681 48.5301 167.681 52.7249C167.681 56.9196 171.082 60.3201 175.276 60.3201Z" fill="#1B1818"/>
</g>
<defs>
<clipPath id="clip0">
<rect width="228" height="228" fill="white"/>
</clipPath>
</defs>
</svg>
