<svg xmlns="http://www.w3.org/2000/svg" x="0px" y="0px"
width="50" height="50"
viewBox="0 0 172 172"
style=" fill:#000000;"><g fill="none" fill-rule="nonzero" stroke="none" stroke-width="1" stroke-linecap="butt" stroke-linejoin="miter" stroke-miterlimit="10" stroke-dasharray="" stroke-dashoffset="0" font-family="none" font-weight="none" font-size="none" text-anchor="none" style="mix-blend-mode: normal"><path d="M0,172v-172h172v172z" fill="none"></path><g fill="#fffafa"><path d="M141.04,17.2c-23.35437,-0.02687 -36.2275,13.06125 -44.14219,38.56563c4.13875,-1.53188 8.29094,-3.42656 12.05344,-3.42656c7.91469,0 10.54844,2.94281 9.41969,12.08031c-0.37625,5.71094 -2.63375,14.92906 -9.41969,25.585c-6.78594,10.27969 -12.685,13.19562 -16.07125,13.19562c-4.13875,0 -7.28312,-5.95281 -10.66937,-21.94344c-1.12875,-4.56875 -3.7625,-14.84844 -6.78594,-34.25219c-2.63375,-17.88531 -11.395,-27.50656 -23.82469,-26.36438c-5.2675,0.37625 -11.56969,5.28094 -22.11812,14.41844c-7.53844,6.85313 -14.68719,11.79813 -22.60188,18.65125l7.53844,9.66156c7.14875,-4.945 11.30094,-6.85312 12.42969,-6.85312c5.2675,0 10.15875,8.37156 15.06344,25.50437c4.13875,15.60094 8.65375,31.20188 12.80594,46.80281c6.39625,17.13281 14.31094,25.50437 23.35438,25.50437c15.06344,0 33.13687,-13.69281 54.61,-41.85781c21.08344,-26.64656 31.68562,-48.71094 32.43812,-64.31188c0.7525,-20.54594 -7.51156,-30.58375 -24.08,-30.96z"></path></g></g></svg>