<svg xmlns="http://www.w3.org/2000/svg" x="0px" y="0px"
width="48" height="48"
viewBox="0 0 172 172"
style=" fill:#000000;"><g fill="none" fill-rule="nonzero" stroke="none" stroke-width="1" stroke-linecap="butt" stroke-linejoin="miter" stroke-miterlimit="10" stroke-dasharray="" stroke-dashoffset="0" font-family="none" font-weight="none" font-size="none" text-anchor="none" style="mix-blend-mode: normal"><path d="M0,172v-172h172v172z" fill="none"></path><g fill="#1b1818"><path d="M161.25,51.24167c-0.71667,14.69167 -10.75,34.4 -30.81667,59.48333c-20.425,26.51667 -37.625,39.41667 -51.95833,39.41667c-8.6,0 -16.125,-7.88333 -22.21667,-24.00833c-3.94167,-14.69167 -8.24167,-29.38333 -12.18333,-44.075c-4.65833,-16.125 -9.31667,-24.00833 -14.33333,-24.00833c-1.075,0 -5.01667,1.79167 -11.825,6.45l-7.16667,-8.24167c7.525,-6.45 14.33333,-11.10833 21.5,-17.55833c10.03333,-8.6 17.2,-12.9 22.21667,-13.25833c11.825,-1.075 18.99167,6.80833 21.5,23.65c2.86667,18.275 5.375,27.95 6.45,32.25c3.225,15.05 7.16667,22.93333 11.10833,22.93333c3.225,0 7.88333,-5.01667 14.33333,-14.69167c6.45,-10.03333 9.675,-17.2 10.03333,-22.575c1.075,-8.6 -2.50833,-12.9 -10.03333,-12.9c-3.58333,0 -7.525,1.79167 -11.46667,3.225c7.525,-24.00833 21.85833,-36.55 42.64167,-35.83333c15.76667,0.35833 22.93333,10.39167 22.21667,29.74167z"></path></g></g></svg>